<svg version="1.1" id="Layer_1" xmlns="http://www.w3.org/2000/svg" xmlns:xlink="http://www.w3.org/1999/xlink" x="0px" y="0px"
	 width="100%" viewBox="0 0 527 421" enable-background="new 0 0 527 421" xml:space="preserve">
<path fill="#62D259" opacity="1.000000" stroke="none" 
	d="
M528.000000,154.000000 
	C528.000000,243.643173 528.000000,332.786346 528.000000,421.964752 
	C352.403137,421.964752 176.806244,421.964752 1.104680,421.964752 
	C1.104680,281.773499 1.104680,141.546906 1.104680,1.160150 
	C176.666550,1.160150 352.333252,1.160150 528.000000,1.160150 
	C528.000000,51.860466 528.000000,102.680229 528.000000,154.000000 
M179.062668,340.098633 
	C186.874603,359.401459 198.559525,375.276459 217.997177,384.381927 
	C230.755188,390.358368 244.076691,394.324615 258.008209,396.457550 
	C295.554413,402.205902 330.876465,396.585846 362.413788,374.651794 
	C386.495422,357.903046 403.556915,335.413727 408.873810,306.112457 
	C412.038086,288.674469 413.058289,270.737976 413.707214,252.976852 
	C414.893829,220.499329 397.880005,198.093094 366.340607,181.904221 
	C362.690460,177.586960 359.352051,172.953384 355.342072,169.001236 
	C314.031769,128.286865 252.410217,121.952782 203.581436,153.264664 
	C159.578857,181.481659 138.028885,233.997482 149.887741,284.047638 
	C154.822754,304.875763 164.624039,323.136414 179.062668,340.098633 
M378.358459,116.282616 
	C376.724121,119.384430 375.089783,122.486244 373.352661,125.783089 
	C369.114960,121.950623 363.703369,119.578308 362.810974,112.956177 
	C362.599884,111.389679 359.756714,109.309937 357.949677,109.119064 
	C356.656708,108.982483 354.463928,111.341011 353.729156,113.042526 
	C351.255798,118.770309 352.135254,124.327087 356.472046,129.441452 
	C350.767609,130.539505 345.717255,131.379227 340.747986,132.560181 
	C339.487366,132.859756 337.568207,134.254471 337.576721,135.130127 
	C337.589783,136.473694 338.748138,138.136963 339.905579,139.048492 
	C341.142639,140.022675 342.901367,140.580276 344.503876,140.801071 
	C350.761353,141.663162 357.124878,141.931808 363.298889,143.169800 
	C368.722748,144.257370 373.977814,146.251007 379.246216,148.026154 
	C382.518585,149.128754 385.618713,151.360947 388.905304,151.602661 
	C391.425629,151.788055 394.116547,149.653854 396.731598,148.551285 
	C395.540985,146.400574 394.890594,143.331223 393.066162,142.258301 
	C385.191772,137.627533 382.349152,131.068954 383.863190,122.291595 
	C384.003113,121.480339 383.913086,120.629417 384.618347,119.949471 
	C429.646301,159.661057 449.844269,209.968735 447.978546,270.020599 
	C467.732483,271.282257 487.062988,272.516907 506.385101,273.750977 
	C512.707947,192.660110 473.757355,100.034271 387.113037,49.199471 
	C301.955017,-0.763311 191.167068,6.579607 115.292824,67.760536 
	C49.757530,120.604691 20.161322,189.754395 22.744591,273.785309 
	C43.031368,272.468201 62.235683,271.221375 81.679199,269.959015 
	C81.679199,264.656616 81.235367,259.967834 81.761520,255.390533 
	C83.411674,241.035034 83.986649,226.349625 87.572037,212.461670 
	C98.207718,171.264435 120.726204,137.503922 154.962189,111.940834 
	C187.950836,87.309097 225.201279,74.911407 266.320221,75.162323 
	C297.141754,75.350388 326.452240,82.580658 353.281097,98.087852 
	C362.279999,103.289253 370.431732,109.956322 378.358459,116.282616 
M154.538239,159.079773 
	C155.276321,158.177170 156.008087,157.269318 156.753403,156.372742 
	C187.106033,119.860291 226.236206,103.512772 273.392792,105.591087 
	C293.680389,106.485214 313.264954,110.691315 332.252869,117.856949 
	C333.614532,118.370811 335.338593,117.924255 336.894165,117.924255 
	C336.961670,117.374336 337.029175,116.824417 337.096680,116.274506 
	C336.006470,115.646873 334.978149,114.856079 333.817017,114.415359 
	C301.542511,102.165787 268.357483,97.650986 234.332382,104.620773 
	C188.411316,114.027367 156.033432,141.783447 134.886765,182.546356 
	C107.635254,235.077133 110.891090,288.718170 132.067642,342.372986 
	C132.545853,343.584625 134.153442,344.350494 135.234222,345.324280 
	C135.282166,343.703888 135.856262,341.870117 135.298630,340.495361 
	C127.746422,321.876038 122.851250,302.629486 120.744980,282.629242 
	C115.971169,237.299179 125.996979,196.034378 154.538239,159.079773 
M141.508743,359.948120 
	C139.679703,360.961090 137.850662,361.974091 135.272232,363.402100 
	C137.586868,365.203278 139.082245,366.869965 140.948502,367.654663 
	C142.355804,368.246429 145.230835,368.314941 145.699585,367.546722 
	C146.641983,366.002319 146.800018,363.666473 146.519287,361.770111 
	C146.190750,359.550842 144.706696,358.172485 141.508743,359.948120 
z"/>
<path fill="#272624" opacity="1.000000" stroke="none" 
	d="
M378.970703,115.953461 
	C370.431732,109.956322 362.279999,103.289253 353.281097,98.087852 
	C326.452240,82.580658 297.141754,75.350388 266.320221,75.162323 
	C225.201279,74.911407 187.950836,87.309097 154.962189,111.940834 
	C120.726204,137.503922 98.207718,171.264435 87.572037,212.461670 
	C83.986649,226.349625 83.411674,241.035034 81.761520,255.390533 
	C81.235367,259.967834 81.679199,264.656616 81.679199,269.959015 
	C62.235683,271.221375 43.031368,272.468201 22.744591,273.785309 
	C20.161322,189.754395 49.757530,120.604691 115.292824,67.760536 
	C191.167068,6.579607 301.955017,-0.763311 387.113037,49.199471 
	C473.757355,100.034271 512.707947,192.660110 506.385101,273.750977 
	C487.062988,272.516907 467.732483,271.282257 447.978546,270.020599 
	C449.844269,209.968735 429.646301,159.661057 384.183899,119.547745 
	C382.156525,118.081833 380.563629,117.017647 378.970703,115.953461 
M275.443787,47.200665 
	C276.989105,51.170147 278.534424,55.139629 280.357483,59.822521 
	C286.275604,52.364094 291.565552,35.951492 288.846069,32.381836 
	C286.103180,38.944878 283.559082,45.032261 280.813019,51.602871 
	C278.811981,46.456230 277.085297,42.015263 275.358612,37.574291 
	C274.811737,37.585526 274.264893,37.596760 273.718018,37.607990 
	C271.594391,41.820484 269.470764,46.032974 266.890869,51.150578 
	C265.085266,44.955772 263.713196,39.864899 262.058929,34.867462 
	C261.688416,33.748211 260.329163,32.956245 259.425140,32.013596 
	C259.109619,33.279278 258.286560,34.671368 258.564941,35.789124 
	C259.886597,41.095406 261.465546,46.339828 263.043518,51.578987 
	C263.718170,53.819046 264.613525,55.992634 265.408600,58.196423 
	C265.937256,58.234280 266.465942,58.272137 266.994629,58.309994 
	C268.966125,54.409100 270.894867,50.484932 272.983002,46.647495 
	C273.168121,46.307289 274.392029,46.532310 275.443787,47.200665 
M56.882397,228.695267 
	C52.638580,226.798080 48.442772,224.777802 44.116959,223.090881 
	C43.045376,222.673004 41.552231,223.336136 40.252869,223.502365 
	C41.075615,224.527130 41.688564,225.990158 42.757030,226.501633 
	C47.670868,228.853989 52.711857,230.940750 58.272636,233.369751 
	C52.988594,235.220840 48.369213,236.839081 43.749828,238.457321 
	C43.772194,238.969025 43.794559,239.480728 43.816925,239.992432 
	C47.979294,242.318207 52.141663,244.643982 57.091522,247.409775 
	C51.438572,248.793533 46.885830,249.720917 42.467232,251.083359 
	C40.744488,251.614532 39.323750,253.125153 37.765453,254.189667 
	C39.710678,254.355667 41.723629,254.920334 43.586887,254.603806 
	C47.342560,253.965805 51.029598,252.896500 54.720684,251.913956 
	C57.839573,251.083710 60.924217,250.124847 64.024017,249.222900 
	C64.139198,248.695343 64.254372,248.167786 64.369553,247.640228 
	C59.961208,245.126694 55.552864,242.613174 50.606236,239.792740 
	C56.136368,237.781357 60.785030,236.090576 65.433693,234.399796 
	C65.418739,233.826965 65.403793,233.254135 65.388840,232.681305 
	C62.790337,231.442627 60.191833,230.203949 56.882397,228.695267 
M134.877701,105.300629 
	C138.491348,102.368279 142.492706,99.656494 142.100922,94.162285 
	C141.671341,88.137886 138.292908,83.969284 133.212021,81.228409 
	C128.446976,78.657921 124.244934,80.388840 120.456810,83.691772 
	C119.080742,84.891602 117.662025,86.050568 116.193748,87.134705 
	C114.089050,88.688759 114.227318,90.229111 115.819000,92.123215 
	C119.344765,96.318901 123.006340,100.436653 126.132690,104.920738 
	C128.800735,108.747467 131.219498,109.235580 134.877701,105.300629 
M184.511703,62.906464 
	C183.693649,60.591900 182.875610,58.277332 181.769760,55.148476 
	C189.524033,59.819614 196.289764,63.895271 203.055511,67.970924 
	C203.565018,67.429459 204.074509,66.887993 204.584015,66.346527 
	C201.647461,58.482368 198.710922,50.618210 195.774368,42.754047 
	C195.170868,42.928192 194.567352,43.102333 193.963852,43.276478 
	C192.775162,49.477043 198.323044,54.470055 198.261459,61.057964 
	C191.258347,56.661083 184.744659,52.571487 177.986191,48.328213 
	C176.608337,53.943485 183.559006,71.802147 187.990067,73.288010 
	C186.810471,69.667290 185.822449,66.634621 184.511703,62.906464 
M68.769241,182.560272 
	C60.599842,178.573822 53.539497,179.859100 49.912613,185.992981 
	C46.433262,191.877350 48.020000,198.838181 53.715607,202.676315 
	C59.699612,206.708801 67.653008,205.827148 71.789642,200.672806 
	C76.153122,195.235779 75.230957,188.506683 68.769241,182.560272 
M82.540962,162.033493 
	C81.278046,161.270706 80.015129,160.507935 78.276680,159.457947 
	C80.167908,156.704788 81.502380,153.618423 83.835205,151.846283 
	C85.009865,150.953964 87.994904,152.749802 90.164070,152.760376 
	C91.757507,152.768127 93.355453,151.850220 94.951393,151.344818 
	C94.868240,150.791092 94.785088,150.237366 94.701927,149.683640 
	C90.796394,148.963135 86.890862,148.242630 82.985329,147.522125 
	C83.240280,147.128876 83.495239,146.735641 83.750198,146.342392 
	C80.942932,144.543167 78.341156,141.902817 75.277199,141.154236 
	C71.305313,140.183838 69.261948,143.802597 67.456062,146.846329 
	C66.526588,148.412903 65.779800,150.096909 64.761238,151.599564 
	C63.063259,154.104553 63.564629,155.710754 66.247169,157.142166 
	C71.360405,159.870621 76.298317,162.928574 81.422501,165.634872 
	C82.671082,166.294296 84.359535,166.120819 85.845734,166.330307 
	C84.963921,165.025986 84.082108,163.721649 82.540962,162.033493 
M448.162415,162.031082 
	C448.775085,161.797241 449.555298,161.195724 449.974396,161.386703 
	C453.953827,163.200165 454.526672,170.734619 450.952606,173.417343 
	C447.480286,176.023697 447.305756,176.882950 448.836273,178.660248 
	C452.269989,176.766724 455.783142,174.829407 460.748840,172.091064 
	C464.367035,173.069809 469.796997,170.111282 468.826569,164.566071 
	C468.083038,160.317123 465.637756,156.320236 463.597961,152.393784 
	C463.296967,151.814377 460.853424,151.793594 459.742889,152.285629 
	C455.058472,154.361115 450.416290,156.572128 445.942078,159.063019 
	C444.034515,160.125015 442.576752,161.994980 440.914581,163.497742 
	C443.081085,163.115631 445.247589,162.733521 448.162415,162.031082 
M466.991608,238.169098 
	C469.453796,238.169098 471.915955,238.169098 474.799286,238.169098 
	C475.003937,242.328247 475.202942,246.372757 475.414948,250.681335 
	C472.267822,250.879227 469.607147,250.881210 467.014801,251.303055 
	C466.157013,251.442627 465.475220,252.663971 464.712982,253.390686 
	C465.587128,253.935547 466.482330,254.981491 467.332123,254.945831 
	C473.988342,254.666367 480.643463,254.263306 487.277679,253.663422 
	C488.238129,253.576553 489.085510,252.238785 489.985229,251.479889 
	C488.903259,250.973999 487.852081,250.133881 486.733032,250.030930 
	C484.308960,249.807938 481.850220,249.962234 479.120056,249.962234 
	C478.848633,245.838074 478.582794,241.798889 478.293976,237.410797 
	C481.221558,237.252258 483.562866,237.307480 485.829956,236.923904 
	C486.920074,236.739456 487.870117,235.726822 488.883575,235.089218 
	C487.910980,234.443359 486.910248,233.202682 485.970276,233.247101 
	C479.316956,233.561417 472.670074,234.076218 466.038483,234.709000 
	C465.161682,234.792679 464.383087,235.906158 463.558990,236.542679 
	C464.418488,237.097321 465.278015,237.651962 466.991608,238.169098 
M236.401321,47.307503 
	C235.217987,46.694305 234.036392,45.577843 232.850967,45.573792 
	C230.460876,45.565624 228.068695,46.162556 225.393814,46.551060 
	C225.052765,43.799603 224.793457,41.707485 224.503326,39.366859 
	C227.904053,38.809246 231.019821,38.394497 234.081909,37.731781 
	C234.893784,37.556068 235.662125,36.706326 236.192642,35.978218 
	C236.362045,35.745708 235.613281,34.390854 235.430801,34.421452 
	C230.600342,35.231262 225.778427,36.107944 221.000198,37.175259 
	C220.705704,37.241043 220.577423,38.995167 220.717667,39.910778 
	C221.673233,46.148941 222.674026,52.381409 223.787323,58.592930 
	C223.969940,59.611763 224.871277,61.387943 225.285019,61.344204 
	C230.263824,60.817799 235.213318,60.014397 240.170471,59.283260 
	C240.090973,58.393623 240.011475,57.503986 239.931961,56.614349 
	C235.785400,56.955635 231.638824,57.296925 227.352814,57.649689 
	C226.943176,55.164345 226.549500,52.775829 226.159088,50.407051 
	C229.611557,49.534412 232.796860,48.729309 236.401321,47.307503 
M398.610107,100.186729 
	C397.451813,102.356499 394.786041,105.740898 395.390137,106.490639 
	C398.371063,110.190178 402.217926,113.191994 405.759277,116.439964 
	C406.310974,115.912460 406.862671,115.384956 407.414368,114.857460 
	C406.091614,110.682213 401.476471,108.939415 399.010834,105.319954 
	C400.712860,103.457031 402.444153,101.562088 403.942230,99.922379 
	C407.312225,102.361694 410.119873,104.393951 412.927521,106.426208 
	C413.371735,105.872734 413.815948,105.319260 414.260193,104.765778 
	C411.788696,102.120918 409.317230,99.476051 406.802765,96.785194 
	C408.501495,94.948494 409.948273,93.384247 411.412750,91.800827 
	C414.826660,94.536392 418.005127,97.083305 421.183594,99.630226 
	C421.639008,99.108635 422.094421,98.587044 422.549835,98.065460 
	C419.985931,93.423317 415.412079,90.648453 411.142029,86.716652 
	C406.973053,91.191956 403.033875,95.420563 398.610107,100.186729 
M370.627411,89.102333 
	C376.208069,91.919121 379.784027,91.691956 382.258484,88.255753 
	C385.476868,83.786461 382.932495,80.503036 379.936523,77.301407 
	C378.918365,76.213371 377.748901,75.108261 377.207489,73.782669 
	C376.769806,72.711014 376.714355,70.956383 377.329559,70.130882 
	C377.934967,69.318535 379.914642,68.649803 380.733917,69.052376 
	C382.714874,70.025764 384.437378,71.583946 386.132385,73.057831 
	C387.107300,73.905579 387.825623,75.048454 389.016937,76.491501 
	C390.321014,71.484886 388.090240,67.951767 383.238983,65.952179 
	C379.790131,64.530647 376.628479,64.798775 374.262451,67.885941 
	C372.031616,70.796692 372.493835,73.829277 374.639313,76.621521 
	C375.855347,78.204185 377.563324,79.495911 378.436371,81.227852 
	C379.149048,82.641747 378.951874,84.514275 379.158112,86.183456 
	C377.334442,86.403725 375.050598,87.405472 373.792786,86.664795 
	C371.805084,85.494331 370.588104,83.073036 368.873566,81.351822 
	C368.197174,80.672813 367.060791,80.452049 366.133881,80.022621 
	C365.992279,80.917336 365.431244,82.057228 365.785004,82.662384 
	C367.018677,84.772804 368.568787,86.698265 370.627411,89.102333 
M329.109955,44.695179 
	C326.892212,40.544052 322.987793,38.823288 318.771851,39.276009 
	C316.427795,39.527721 313.036011,41.624832 312.450714,43.586643 
	C311.784637,45.819328 313.260010,49.114048 314.680359,51.403896 
	C315.703552,53.053421 318.453369,53.537418 319.886047,55.057007 
	C321.054291,56.296116 321.412170,58.299221 322.129395,59.963554 
	C320.403290,60.614651 318.561218,61.986977 316.980713,61.732788 
	C315.041016,61.420834 313.313446,59.760151 311.506989,58.661495 
	C310.525848,58.064785 309.571259,57.424454 308.246277,56.573658 
	C308.159210,61.619324 310.843201,64.269363 316.338013,65.221275 
	C320.236328,65.896614 323.840576,65.270691 325.565247,61.250851 
	C327.388672,57.000721 325.524933,53.900898 321.681580,51.779591 
	C320.811615,51.299404 319.933167,50.817440 319.129028,50.238445 
	C317.063538,48.751232 313.575043,47.334190 316.084656,44.344612 
	C317.157715,43.066311 320.720795,43.583145 323.097382,43.825016 
	C324.201477,43.937378 325.068481,45.632538 326.243011,46.057861 
	C327.047974,46.349373 328.197876,45.688309 329.109955,44.695179 
M443.134644,121.430923 
	C435.748596,123.288696 428.343140,125.075287 420.996765,127.078682 
	C419.855225,127.389984 418.983856,128.692001 417.987579,129.535889 
	C419.286896,129.732193 420.805969,130.461105 421.847015,130.031540 
	C426.091919,128.279907 427.302704,131.645691 429.146759,133.986160 
	C430.954712,136.280762 433.332977,138.390808 430.509949,141.690887 
	C429.800232,142.520523 430.162506,144.267212 430.032135,145.592468 
	C431.134216,144.904739 432.656250,144.477005 433.269440,143.486588 
	C436.933594,137.568405 440.464508,131.562698 443.834656,125.472641 
	C444.367554,124.509644 443.857361,122.969444 443.134644,121.430923 
M462.440735,210.900162 
	C459.989227,204.564468 461.112427,199.965652 466.256226,197.932220 
	C468.713409,196.960846 471.914246,196.568008 474.411469,197.252029 
	C481.106354,199.085754 479.668030,205.755325 480.959686,211.594757 
	C485.278412,207.916672 484.115356,204.372849 482.934143,201.051575 
	C480.913666,195.370483 475.804382,192.368835 469.591705,192.884048 
	C463.711182,193.371750 458.978363,197.327591 457.848877,202.699081 
	C456.663940,208.334244 458.602173,213.169632 464.158905,216.340454 
	C463.606171,214.201004 463.261169,212.865555 462.440735,210.900162 
M111.398430,128.894424 
	C112.571434,127.490547 113.886536,126.177032 114.859940,124.646233 
	C115.378136,123.831322 115.304962,122.640388 115.498726,121.619171 
	C114.393532,121.905556 112.945442,121.847702 112.247490,122.542931 
	C110.160278,124.621956 108.366745,126.995796 106.208160,129.550903 
	C101.116531,125.275406 96.351624,121.168289 91.432503,117.255028 
	C90.672966,116.650795 89.205650,116.936256 88.065659,116.810272 
	C88.339523,117.828690 88.279915,119.227852 88.939659,119.805679 
	C94.544876,124.714859 100.281013,129.474564 106.281326,134.534973 
	C108.074913,132.579910 109.510910,131.014633 111.398430,128.894424 
z"/>
<path fill="#FD4C50" opacity="1.000000" stroke="none" 
	d="
M366.712097,182.132111 
	C397.880005,198.093094 414.893829,220.499329 413.707214,252.976852 
	C413.058289,270.737976 412.038086,288.674469 408.873810,306.112457 
	C403.556915,335.413727 386.495422,357.903046 362.413788,374.651794 
	C330.876465,396.585846 295.554413,402.205902 258.008209,396.457550 
	C244.076691,394.324615 230.755188,390.358368 217.997177,384.381927 
	C198.559525,375.276459 186.874603,359.401459 179.318253,339.954926 
	C186.033340,345.029144 192.048996,350.953827 199.031418,355.339081 
	C225.168762,371.754456 253.988403,376.289795 284.295837,373.108612 
	C347.783325,366.444641 384.833557,321.747009 387.800812,261.779572 
	C389.219940,233.098877 382.675476,206.315430 366.712097,182.132111 
z"/>
<path fill="#0B0905" opacity="1.000000" stroke="none" 
	d="
M366.526367,182.018158 
	C382.675476,206.315430 389.219940,233.098877 387.800812,261.779572 
	C384.833557,321.747009 347.783325,366.444641 284.295837,373.108612 
	C253.988403,376.289795 225.168762,371.754456 199.031418,355.339081 
	C192.048996,350.953827 186.033340,345.029144 179.176117,339.466034 
	C164.624039,323.136414 154.822754,304.875763 149.887741,284.047638 
	C138.028885,233.997482 159.578857,181.481659 203.581436,153.264664 
	C252.410217,121.952782 314.031769,128.286865 355.342072,169.001236 
	C359.352051,172.953384 362.690460,177.586960 366.526367,182.018158 
M170.992508,322.660980 
	C171.479065,323.132263 171.965607,323.603546 172.568329,324.703308 
	C180.817963,337.132141 191.478897,347.098053 204.492798,354.230804 
	C236.760605,371.916351 270.900970,374.518219 305.974335,364.941833 
	C337.084137,356.447662 360.053528,337.511078 373.210724,307.870117 
	C386.340088,278.291901 387.387329,247.629028 378.596313,216.675278 
	C374.431091,202.009399 367.849548,188.438492 356.988251,176.576477 
	C356.640533,176.376801 356.292816,176.177139 356.015106,175.984436 
	C356.015106,175.984436 356.017548,176.054749 355.914948,175.374222 
	C324.225616,142.837708 285.990845,130.365097 241.767227,140.829102 
	C185.773102,154.078217 138.809860,211.791809 153.204254,280.849823 
	C156.300171,295.702576 161.512680,309.862183 171.047470,321.966461 
	C171.047470,321.966461 170.976166,321.946869 170.992508,322.660980 
z"/>
<path fill="#070F06" opacity="1.000000" stroke="none" 
	d="
M154.318405,159.362732 
	C125.996979,196.034378 115.971169,237.299179 120.744980,282.629242 
	C122.851250,302.629486 127.746422,321.876038 135.298630,340.495361 
	C135.856262,341.870117 135.282166,343.703888 135.234222,345.324280 
	C134.153442,344.350494 132.545853,343.584625 132.067642,342.372986 
	C110.891090,288.718170 107.635254,235.077133 134.886765,182.546356 
	C156.033432,141.783447 188.411316,114.027367 234.332382,104.620773 
	C268.357483,97.650986 301.542511,102.165787 333.817017,114.415359 
	C334.978149,114.856079 336.006470,115.646873 337.096680,116.274506 
	C337.029175,116.824417 336.961670,117.374336 336.894165,117.924255 
	C335.338593,117.924255 333.614532,118.370811 332.252869,117.856949 
	C313.264954,110.691315 293.680389,106.485214 273.392792,105.591087 
	C226.236206,103.512772 187.106033,119.860291 156.753403,156.372742 
	C156.008087,157.269318 155.276321,158.177170 154.318405,159.362732 
z"/>
<path fill="#060D05" opacity="1.000000" stroke="none" 
	d="
M378.664581,116.118042 
	C380.563629,117.017647 382.156525,118.081833 383.839630,119.471466 
	C383.913086,120.629417 384.003113,121.480339 383.863190,122.291595 
	C382.349152,131.068954 385.191772,137.627533 393.066162,142.258301 
	C394.890594,143.331223 395.540985,146.400574 396.731598,148.551285 
	C394.116547,149.653854 391.425629,151.788055 388.905304,151.602661 
	C385.618713,151.360947 382.518585,149.128754 379.246216,148.026154 
	C373.977814,146.251007 368.722748,144.257370 363.298889,143.169800 
	C357.124878,141.931808 350.761353,141.663162 344.503876,140.801071 
	C342.901367,140.580276 341.142639,140.022675 339.905579,139.048492 
	C338.748138,138.136963 337.589783,136.473694 337.576721,135.130127 
	C337.568207,134.254471 339.487366,132.859756 340.747986,132.560181 
	C345.717255,131.379227 350.767609,130.539505 356.472046,129.441452 
	C352.135254,124.327087 351.255798,118.770309 353.729156,113.042526 
	C354.463928,111.341011 356.656708,108.982483 357.949677,109.119064 
	C359.756714,109.309937 362.599884,111.389679 362.810974,112.956177 
	C363.703369,119.578308 369.114960,121.950623 373.352661,125.783089 
	C375.089783,122.486244 376.724121,119.384430 378.664581,116.118042 
M360.528870,139.092911 
	C368.451904,139.236038 375.921509,140.582123 382.651062,145.371429 
	C385.111176,147.122253 388.621124,147.398010 391.652130,148.346695 
	C391.898834,147.737045 392.145508,147.127411 392.392212,146.517776 
	C385.519196,140.852539 378.690063,135.132919 371.759247,129.539307 
	C366.251801,125.094452 360.116974,121.212181 358.725647,113.443748 
	C358.711456,113.364304 358.181702,113.377182 357.962769,113.354294 
	C352.900543,121.564560 359.199310,126.237617 365.217682,132.061844 
	C357.095428,133.450958 350.426971,134.591415 343.758545,135.731888 
	C343.798248,136.149445 343.837982,136.567001 343.877686,136.984558 
	C349.122803,137.661194 354.367889,138.337830 360.528870,139.092911 
z"/>
<path fill="#060D06" opacity="1.000000" stroke="none" 
	d="
M141.851303,359.796417 
	C144.706696,358.172485 146.190750,359.550842 146.519287,361.770111 
	C146.800018,363.666473 146.641983,366.002319 145.699585,367.546722 
	C145.230835,368.314941 142.355804,368.246429 140.948502,367.654663 
	C139.082245,366.869965 137.586868,365.203278 135.272232,363.402100 
	C137.850662,361.974091 139.679703,360.961090 141.851303,359.796417 
z"/>
<path fill="#F1EBE7" opacity="1.000000" stroke="none" 
	d="
M275.288635,46.847740 
	C274.392029,46.532310 273.168121,46.307289 272.983002,46.647495 
	C270.894867,50.484932 268.966125,54.409100 266.994629,58.309994 
	C266.465942,58.272137 265.937256,58.234280 265.408600,58.196423 
	C264.613525,55.992634 263.718170,53.819046 263.043518,51.578987 
	C261.465546,46.339828 259.886597,41.095406 258.564941,35.789124 
	C258.286560,34.671368 259.109619,33.279278 259.425140,32.013596 
	C260.329163,32.956245 261.688416,33.748211 262.058929,34.867462 
	C263.713196,39.864899 265.085266,44.955772 266.890869,51.150578 
	C269.470764,46.032974 271.594391,41.820484 273.718018,37.607990 
	C274.264893,37.596760 274.811737,37.585526 275.358612,37.574291 
	C277.085297,42.015263 278.811981,46.456230 280.813019,51.602871 
	C283.559082,45.032261 286.103180,38.944878 288.846069,32.381836 
	C291.565552,35.951492 286.275604,52.364094 280.357483,59.822521 
	C278.534424,55.139629 276.989105,51.170147 275.288635,46.847740 
z"/>
<path fill="#F1EBE7" opacity="1.000000" stroke="none" 
	d="
M57.237862,228.830261 
	C60.191833,230.203949 62.790337,231.442627 65.388840,232.681305 
	C65.403793,233.254135 65.418739,233.826965 65.433693,234.399796 
	C60.785030,236.090576 56.136368,237.781357 50.606236,239.792740 
	C55.552864,242.613174 59.961208,245.126694 64.369553,247.640228 
	C64.254372,248.167786 64.139198,248.695343 64.024017,249.222900 
	C60.924217,250.124847 57.839573,251.083710 54.720684,251.913956 
	C51.029598,252.896500 47.342560,253.965805 43.586887,254.603806 
	C41.723629,254.920334 39.710678,254.355667 37.765450,254.189667 
	C39.323750,253.125153 40.744488,251.614532 42.467232,251.083359 
	C46.885830,249.720917 51.438572,248.793533 57.091522,247.409775 
	C52.141663,244.643982 47.979294,242.318207 43.816925,239.992432 
	C43.794559,239.480728 43.772194,238.969025 43.749828,238.457321 
	C48.369213,236.839081 52.988594,235.220840 58.272636,233.369751 
	C52.711857,230.940750 47.670868,228.853989 42.757030,226.501633 
	C41.688564,225.990158 41.075615,224.527130 40.252869,223.502365 
	C41.552231,223.336136 43.045376,222.673004 44.116959,223.090881 
	C48.442772,224.777802 52.638580,226.798080 57.237862,228.830261 
z"/>
<path fill="#F0EAE6" opacity="1.000000" stroke="none" 
	d="
M134.613388,105.533493 
	C131.219498,109.235580 128.800735,108.747467 126.132690,104.920738 
	C123.006340,100.436653 119.344765,96.318901 115.819000,92.123215 
	C114.227318,90.229111 114.089050,88.688759 116.193748,87.134705 
	C117.662025,86.050568 119.080742,84.891602 120.456810,83.691772 
	C124.244934,80.388840 128.446976,78.657921 133.212021,81.228409 
	C138.292908,83.969284 141.671341,88.137886 142.100922,94.162285 
	C142.492706,99.656494 138.491348,102.368279 134.613388,105.533493 
M135.082275,87.461121 
	C128.975906,81.993713 125.886070,82.450249 118.944519,90.017746 
	C122.756134,94.695435 126.591354,99.402084 130.406250,104.083794 
	C139.472397,97.881538 140.265045,95.321922 135.082275,87.461121 
z"/>
<path fill="#EFE9E6" opacity="1.000000" stroke="none" 
	d="
M184.673065,63.254211 
	C185.822449,66.634621 186.810471,69.667290 187.990067,73.288010 
	C183.559006,71.802147 176.608337,53.943485 177.986191,48.328213 
	C184.744659,52.571487 191.258347,56.661083 198.261459,61.057964 
	C198.323044,54.470055 192.775162,49.477043 193.963852,43.276478 
	C194.567352,43.102333 195.170868,42.928192 195.774368,42.754047 
	C198.710922,50.618210 201.647461,58.482368 204.584015,66.346527 
	C204.074509,66.887993 203.565018,67.429459 203.055511,67.970924 
	C196.289764,63.895271 189.524033,59.819614 181.769760,55.148476 
	C182.875610,58.277332 183.693649,60.591900 184.673065,63.254211 
z"/>
<path fill="#EFE9E6" opacity="1.000000" stroke="none" 
	d="
M69.069031,182.784149 
	C75.230957,188.506683 76.153122,195.235779 71.789642,200.672806 
	C67.653008,205.827148 59.699612,206.708801 53.715607,202.676315 
	C48.020000,198.838181 46.433262,191.877350 49.912613,185.992981 
	C53.539497,179.859100 60.599842,178.573822 69.069031,182.784149 
M70.432404,190.384583 
	C67.651573,188.275665 65.146759,185.430740 62.015423,184.256424 
	C58.606953,182.978149 54.480473,184.278763 53.198002,187.943954 
	C52.239929,190.682053 52.398716,194.532135 53.632336,197.144669 
	C55.423321,200.937592 61.661682,202.448105 65.590698,200.793137 
	C69.808586,199.016479 71.481880,195.643570 70.432404,190.384583 
z"/>
<path fill="#EFEAE6" opacity="1.000000" stroke="none" 
	d="
M82.870628,162.225403 
	C84.082108,163.721649 84.963921,165.025986 85.845734,166.330307 
	C84.359535,166.120819 82.671082,166.294296 81.422501,165.634872 
	C76.298317,162.928574 71.360405,159.870621 66.247169,157.142166 
	C63.564629,155.710754 63.063259,154.104553 64.761238,151.599564 
	C65.779800,150.096909 66.526588,148.412903 67.456062,146.846329 
	C69.261948,143.802597 71.305313,140.183838 75.277199,141.154236 
	C78.341156,141.902817 80.942932,144.543167 83.750198,146.342392 
	C83.495239,146.735641 83.240280,147.128876 82.985329,147.522125 
	C86.890862,148.242630 90.796394,148.963135 94.701927,149.683640 
	C94.785088,150.237366 94.868240,150.791092 94.951393,151.344818 
	C93.355453,151.850220 91.757507,152.768127 90.164070,152.760376 
	C87.994904,152.749802 85.009865,150.953964 83.835205,151.846283 
	C81.502380,153.618423 80.167908,156.704788 78.276680,159.457947 
	C80.015129,160.507935 81.278046,161.270706 82.870628,162.225403 
M68.886436,151.388733 
	C67.296921,157.358337 73.948067,154.963654 75.299614,158.712799 
	C76.915108,155.848450 78.725098,153.815155 79.141014,151.528320 
	C79.471420,149.711594 78.655373,146.697906 77.315910,145.853653 
	C76.064240,145.064743 73.262535,146.066330 71.510063,146.982147 
	C70.392059,147.566376 69.942001,149.428802 68.886436,151.388733 
z"/>
<path fill="#F2ECE8" opacity="1.000000" stroke="none" 
	d="
M447.788269,162.191254 
	C445.247589,162.733521 443.081085,163.115631 440.914581,163.497757 
	C442.576752,161.994980 444.034515,160.125015 445.942078,159.063019 
	C450.416290,156.572128 455.058472,154.361115 459.742889,152.285629 
	C460.853424,151.793594 463.296967,151.814377 463.597961,152.393784 
	C465.637756,156.320236 468.083038,160.317123 468.826569,164.566071 
	C469.796997,170.111282 464.367035,173.069809 460.748840,172.091064 
	C455.783142,174.829407 452.269989,176.766724 448.836273,178.660248 
	C447.305756,176.882950 447.480286,176.023697 450.952606,173.417343 
	C454.526672,170.734619 453.953827,163.200165 449.974396,161.386703 
	C449.555298,161.195724 448.775085,161.797241 447.788269,162.191254 
M465.273224,165.185959 
	C464.197266,162.011856 463.121338,158.837753 461.921326,155.297607 
	C458.618195,156.926987 456.062378,158.187729 453.608093,159.398392 
	C456.194519,167.625580 459.196075,171.877075 465.273224,165.185959 
z"/>
<path fill="#EEE8E5" opacity="1.000000" stroke="none" 
	d="
M466.564575,238.187851 
	C465.278015,237.651962 464.418488,237.097321 463.558990,236.542679 
	C464.383087,235.906158 465.161682,234.792679 466.038483,234.709000 
	C472.670074,234.076218 479.316956,233.561417 485.970276,233.247101 
	C486.910248,233.202682 487.910980,234.443359 488.883575,235.089218 
	C487.870117,235.726822 486.920074,236.739456 485.829956,236.923904 
	C483.562866,237.307480 481.221558,237.252258 478.293976,237.410797 
	C478.582794,241.798889 478.848633,245.838074 479.120056,249.962234 
	C481.850220,249.962234 484.308960,249.807938 486.733032,250.030930 
	C487.852081,250.133881 488.903259,250.973999 489.985229,251.479889 
	C489.085510,252.238785 488.238129,253.576553 487.277679,253.663422 
	C480.643463,254.263306 473.988342,254.666367 467.332123,254.945831 
	C466.482330,254.981491 465.587128,253.935547 464.712982,253.390686 
	C465.475220,252.663971 466.157013,251.442627 467.014801,251.303055 
	C469.607147,250.881210 472.267822,250.879227 475.414948,250.681335 
	C475.202942,246.372757 475.003937,242.328247 474.799286,238.169098 
	C471.915955,238.169098 469.453796,238.169098 466.564575,238.187851 
z"/>
<path fill="#EFE9E5" opacity="1.000000" stroke="none" 
	d="
M236.191742,47.615852 
	C232.796860,48.729309 229.611557,49.534412 226.159088,50.407051 
	C226.549500,52.775829 226.943176,55.164345 227.352814,57.649689 
	C231.638824,57.296925 235.785400,56.955635 239.931961,56.614349 
	C240.011475,57.503986 240.090973,58.393623 240.170471,59.283260 
	C235.213318,60.014397 230.263824,60.817799 225.285019,61.344204 
	C224.871277,61.387943 223.969940,59.611763 223.787323,58.592930 
	C222.674026,52.381409 221.673233,46.148941 220.717667,39.910778 
	C220.577423,38.995167 220.705704,37.241043 221.000198,37.175259 
	C225.778427,36.107944 230.600342,35.231262 235.430801,34.421452 
	C235.613281,34.390854 236.362045,35.745708 236.192642,35.978218 
	C235.662125,36.706326 234.893784,37.556068 234.081909,37.731781 
	C231.019821,38.394497 227.904053,38.809246 224.503326,39.366859 
	C224.793457,41.707485 225.052765,43.799603 225.393814,46.551060 
	C228.068695,46.162556 230.460876,45.565624 232.850967,45.573792 
	C234.036392,45.577843 235.217987,46.694305 236.191742,47.615852 
z"/>
<path fill="#F0EBE7" opacity="1.000000" stroke="none" 
	d="
M398.852417,99.917953 
	C403.033875,95.420563 406.973053,91.191956 411.142029,86.716652 
	C415.412079,90.648453 419.985931,93.423317 422.549835,98.065460 
	C422.094421,98.587044 421.639008,99.108635 421.183594,99.630226 
	C418.005127,97.083305 414.826660,94.536392 411.412750,91.800827 
	C409.948273,93.384247 408.501495,94.948494 406.802765,96.785194 
	C409.317230,99.476051 411.788696,102.120918 414.260193,104.765778 
	C413.815948,105.319260 413.371735,105.872734 412.927521,106.426208 
	C410.119873,104.393951 407.312225,102.361694 403.942230,99.922379 
	C402.444153,101.562088 400.712860,103.457031 399.010834,105.319954 
	C401.476471,108.939415 406.091614,110.682213 407.414368,114.857460 
	C406.862671,115.384956 406.310974,115.912460 405.759277,116.439964 
	C402.217926,113.191994 398.371063,110.190178 395.390137,106.490639 
	C394.786041,105.740898 397.451813,102.356499 398.852417,99.917953 
z"/>
<path fill="#EDE8E4" opacity="1.000000" stroke="none" 
	d="
M370.313019,88.898170 
	C368.568787,86.698265 367.018677,84.772804 365.785004,82.662384 
	C365.431244,82.057228 365.992279,80.917336 366.133850,80.022614 
	C367.060791,80.452049 368.197174,80.672813 368.873566,81.351822 
	C370.588104,83.073036 371.805084,85.494331 373.792786,86.664795 
	C375.050598,87.405472 377.334442,86.403725 379.158112,86.183456 
	C378.951874,84.514275 379.149048,82.641747 378.436371,81.227852 
	C377.563324,79.495911 375.855347,78.204185 374.639313,76.621521 
	C372.493835,73.829277 372.031616,70.796692 374.262451,67.885941 
	C376.628479,64.798775 379.790131,64.530647 383.238983,65.952179 
	C388.090240,67.951767 390.321014,71.484886 389.016937,76.491501 
	C387.825623,75.048454 387.107300,73.905579 386.132385,73.057831 
	C384.437378,71.583946 382.714874,70.025764 380.733917,69.052376 
	C379.914642,68.649803 377.934967,69.318535 377.329559,70.130882 
	C376.714355,70.956383 376.769806,72.711014 377.207489,73.782669 
	C377.748901,75.108261 378.918365,76.213371 379.936523,77.301407 
	C382.932495,80.503036 385.476868,83.786461 382.258484,88.255753 
	C379.784027,91.691956 376.208069,91.919121 370.313019,88.898170 
z"/>
<path fill="#F1EBE7" opacity="1.000000" stroke="none" 
	d="
M329.151794,45.074120 
	C328.197876,45.688309 327.047974,46.349373 326.243011,46.057861 
	C325.068481,45.632538 324.201477,43.937378 323.097382,43.825016 
	C320.720795,43.583145 317.157715,43.066311 316.084656,44.344612 
	C313.575043,47.334190 317.063538,48.751232 319.129028,50.238445 
	C319.933167,50.817440 320.811615,51.299404 321.681580,51.779591 
	C325.524933,53.900898 327.388672,57.000721 325.565247,61.250851 
	C323.840576,65.270691 320.236328,65.896614 316.338013,65.221275 
	C310.843201,64.269363 308.159210,61.619324 308.246277,56.573658 
	C309.571259,57.424454 310.525848,58.064785 311.506989,58.661495 
	C313.313446,59.760151 315.041016,61.420834 316.980713,61.732788 
	C318.561218,61.986977 320.403290,60.614651 322.129395,59.963554 
	C321.412170,58.299221 321.054291,56.296116 319.886047,55.057007 
	C318.453369,53.537418 315.703552,53.053421 314.680359,51.403896 
	C313.260010,49.114048 311.784637,45.819328 312.450714,43.586643 
	C313.036011,41.624832 316.427795,39.527721 318.771851,39.276009 
	C322.987793,38.823288 326.892212,40.544052 329.151794,45.074120 
z"/>
<path fill="#EFE9E5" opacity="1.000000" stroke="none" 
	d="
M443.482056,121.563522 
	C443.857361,122.969444 444.367554,124.509644 443.834656,125.472641 
	C440.464508,131.562698 436.933594,137.568405 433.269440,143.486588 
	C432.656250,144.477005 431.134216,144.904739 430.032135,145.592468 
	C430.162506,144.267212 429.800232,142.520523 430.509949,141.690887 
	C433.332977,138.390808 430.954712,136.280762 429.146759,133.986160 
	C427.302704,131.645691 426.091919,128.279907 421.847015,130.031540 
	C420.805969,130.461105 419.286896,129.732193 417.987549,129.535889 
	C418.983856,128.692001 419.855225,127.389984 420.996765,127.078682 
	C428.343140,125.075287 435.748596,123.288696 443.482056,121.563522 
M434.495178,134.420258 
	C436.085571,131.792908 437.675964,129.165573 439.884125,125.517738 
	C435.776062,126.594116 432.761536,127.383972 429.154114,128.329178 
	C430.960968,130.607788 432.360077,132.372177 434.495178,134.420258 
z"/>
<path fill="#EDE8E4" opacity="1.000000" stroke="none" 
	d="
M462.678436,211.215118 
	C463.261169,212.865555 463.606171,214.201004 464.158905,216.340454 
	C458.602173,213.169632 456.663940,208.334244 457.848877,202.699081 
	C458.978363,197.327591 463.711182,193.371750 469.591705,192.884048 
	C475.804382,192.368835 480.913666,195.370483 482.934143,201.051575 
	C484.115356,204.372849 485.278412,207.916672 480.959686,211.594757 
	C479.668030,205.755325 481.106354,199.085754 474.411469,197.252029 
	C471.914246,196.568008 468.713409,196.960846 466.256226,197.932220 
	C461.112427,199.965652 459.989227,204.564468 462.678436,211.215118 
z"/>
<path fill="#EFEAE6" opacity="1.000000" stroke="none" 
	d="
M111.172668,129.171890 
	C109.510910,131.014633 108.074913,132.579910 106.281326,134.534973 
	C100.281013,129.474564 94.544876,124.714859 88.939659,119.805679 
	C88.279915,119.227852 88.339523,117.828690 88.065659,116.810272 
	C89.205650,116.936256 90.672966,116.650795 91.432503,117.255028 
	C96.351624,121.168289 101.116531,125.275406 106.208160,129.550903 
	C108.366745,126.995796 110.160278,124.621956 112.247490,122.542931 
	C112.945442,121.847702 114.393532,121.905556 115.498726,121.619171 
	C115.304962,122.640388 115.378136,123.831322 114.859940,124.646233 
	C113.886536,126.177032 112.571434,127.490547 111.172668,129.171890 
z"/>
<path fill="#FD4B50" opacity="1.000000" stroke="none" 
	d="
M357.231842,177.157181 
	C367.849548,188.438492 374.431091,202.009399 378.596313,216.675278 
	C387.387329,247.629028 386.340088,278.291901 373.210724,307.870117 
	C360.053528,337.511078 337.084137,356.447662 305.974335,364.941833 
	C270.900970,374.518219 236.760605,371.916351 204.492798,354.230804 
	C191.478897,347.098053 180.817963,337.132141 172.389328,324.061584 
	C171.798935,322.928864 171.387543,322.437866 170.976166,321.946869 
	C170.976166,321.946869 171.047470,321.966461 171.161484,321.609985 
	C170.758774,319.505157 170.270737,317.747742 169.720840,316.009827 
	C164.900681,300.776520 160.917023,285.358887 160.106873,269.314606 
	C158.993942,247.273087 166.504242,227.954926 178.962875,210.196884 
	C185.525314,200.843079 193.477737,193.471664 204.687973,189.974655 
	C209.421021,188.498184 213.902313,186.214706 218.946350,184.439957 
	C227.608719,186.878799 234.338165,185.304993 239.008362,177.214203 
	C244.308487,176.135483 249.172943,175.068802 254.051483,174.399017 
	C253.570511,179.270279 256.396393,181.786026 259.521790,184.178574 
	C266.365723,189.417694 266.529541,192.170700 260.434601,197.972717 
	C259.952209,198.431931 259.481903,198.904663 259.021149,199.385651 
	C255.176300,203.399292 254.702438,206.455536 258.911621,210.042801 
	C263.118988,213.628555 267.932739,217.434540 273.099121,218.794357 
	C290.956573,223.494492 300.936859,236.051773 308.341522,251.594498 
	C312.692688,260.727814 313.332703,269.816650 309.139862,279.501923 
	C305.934113,286.907135 304.096161,294.925201 301.964325,302.756226 
	C301.560913,304.238037 302.237305,307.264130 303.113800,307.568909 
	C304.666168,308.108612 307.146576,307.659790 308.554657,306.660706 
	C317.643463,300.212067 326.683472,293.674835 335.419464,286.762238 
	C337.725494,284.937531 339.930542,281.861420 340.398376,279.061890 
	C341.510681,272.406372 344.831665,267.443359 349.461639,262.875702 
	C360.659637,251.828369 359.607941,239.786850 347.700104,229.488907 
	C343.796631,226.113159 341.144287,220.912231 338.947052,216.078964 
	C337.552582,213.011597 337.825165,208.697983 342.296082,207.462677 
	C346.288330,206.359589 348.357056,209.403397 349.846680,212.519516 
	C350.845856,214.609711 351.103210,217.127151 352.366943,218.997787 
	C353.631409,220.869415 355.734528,222.174484 357.470001,223.727921 
	C359.010864,221.900436 361.237000,220.289917 361.903290,218.185532 
	C362.594299,216.003052 362.334381,213.127853 361.495331,210.936630 
	C359.902100,206.775696 357.896362,202.700806 355.534515,198.919617 
	C348.633698,187.871674 340.269623,178.052567 330.382263,169.856598 
	C334.173187,170.449112 337.581390,171.045044 340.923767,171.898666 
	C345.979095,173.189758 350.988586,174.660400 356.017548,176.054749 
	C356.017548,176.054749 356.015106,175.984436 356.007935,176.315521 
	C356.411133,176.816803 356.821472,176.987000 357.231842,177.157181 
M209.563522,273.934784 
	C206.487854,269.677277 202.799774,265.727905 200.468857,261.095642 
	C196.122955,252.459045 191.258194,249.448013 181.700821,251.289474 
	C178.789490,251.850418 176.032318,253.168472 173.150894,253.939194 
	C170.032822,254.773209 169.109619,256.819183 168.978729,259.830627 
	C167.990860,282.559937 175.302094,302.496216 190.169022,319.373474 
	C202.172745,333.000366 218.533112,340.374298 234.439117,348.495667 
	C244.099014,353.427917 251.727097,352.406769 259.804718,346.117218 
	C264.720764,342.289398 265.816528,337.622955 260.831207,333.889771 
	C257.355865,331.287354 252.496048,329.339325 248.216797,329.264496 
	C240.371155,329.127228 235.680847,325.758942 232.937103,318.864075 
	C230.911148,313.772919 229.048782,308.615173 226.951065,303.554413 
	C222.618362,293.101776 218.251801,282.650970 209.563522,273.934784 
M359.987732,275.397949 
	C357.222992,276.584564 353.001892,275.115234 352.282928,280.015442 
	C351.761414,283.570221 350.627686,287.031250 349.975922,290.572571 
	C349.671844,292.224701 349.300507,295.130676 349.940613,295.440338 
	C351.522430,296.205505 353.905853,296.385162 355.536407,295.729309 
	C358.046906,294.719543 360.197052,292.813965 362.767883,291.111084 
	C363.855347,292.770447 364.498596,294.479431 365.731018,295.397461 
	C366.681305,296.105347 368.852478,296.458466 369.645294,295.860870 
	C372.389191,293.792542 373.089233,285.111542 371.276398,280.682617 
	C369.319489,275.901611 365.696594,274.378601 359.987732,275.397949 
M324.362671,314.036011 
	C324.298096,316.236023 322.506073,319.480072 326.835388,319.341064 
	C331.659546,319.186127 341.368530,308.660828 342.035065,302.344269 
	C335.431671,305.432831 328.067322,305.938171 324.362671,314.036011 
z"/>
<path fill="#62D058" opacity="1.000000" stroke="none" 
	d="
M355.966248,175.714478 
	C350.988586,174.660400 345.979095,173.189758 340.923767,171.898666 
	C337.581390,171.045044 334.173187,170.449112 330.419556,169.862000 
	C330.044708,169.986191 330.039276,170.061813 329.919586,169.751770 
	C329.368530,169.350403 328.937195,169.259064 328.188904,169.069519 
	C299.239349,150.063889 268.741760,145.318909 236.122742,156.965027 
	C225.133484,160.888565 214.834015,166.100677 205.474731,173.569962 
	C208.422256,179.265503 213.319031,181.950272 218.498032,184.298035 
	C213.902313,186.214706 209.421021,188.498184 204.687973,189.974655 
	C193.477737,193.471664 185.525314,200.843079 178.962875,210.196884 
	C166.504242,227.954926 158.993942,247.273087 160.106873,269.314606 
	C160.917023,285.358887 164.900681,300.776520 169.720840,316.009827 
	C170.270737,317.747742 170.758774,319.505157 171.157349,321.646729 
	C161.512680,309.862183 156.300171,295.702576 153.204254,280.849823 
	C138.809860,211.791809 185.773102,154.078217 241.767227,140.829102 
	C285.990845,130.365097 324.225616,142.837708 355.966248,175.714478 
z"/>
<path fill="#62D058" opacity="1.000000" stroke="none" 
	d="
M170.984344,322.303925 
	C171.387543,322.437866 171.798935,322.928864 172.331238,323.747345 
	C171.965607,323.603546 171.479065,323.132263 170.984344,322.303925 
z"/>
<path fill="#62D058" opacity="1.000000" stroke="none" 
	d="
M357.110046,176.866821 
	C356.821472,176.987000 356.411133,176.816803 355.972931,176.312042 
	C356.292816,176.177139 356.640533,176.376801 357.110046,176.866821 
z"/>
<path fill="#5ECA55" opacity="1.000000" stroke="none" 
	d="
M360.070923,139.053696 
	C354.367889,138.337830 349.122803,137.661194 343.877686,136.984558 
	C343.837982,136.567001 343.798248,136.149445 343.758545,135.731888 
	C350.426971,134.591415 357.095428,133.450958 365.217682,132.061844 
	C359.199310,126.237617 352.900543,121.564560 357.962769,113.354294 
	C358.181702,113.377182 358.711456,113.364304 358.725647,113.443748 
	C360.116974,121.212181 366.251801,125.094452 371.759247,129.539307 
	C378.690063,135.132919 385.519196,140.852539 392.392212,146.517776 
	C392.145508,147.127411 391.898834,147.737045 391.652130,148.346695 
	C388.621124,147.398010 385.111176,147.122253 382.651062,145.371429 
	C375.921509,140.582123 368.451904,139.236038 360.070923,139.053696 
z"/>
<path fill="#2A2827" opacity="1.000000" stroke="none" 
	d="
M135.352570,87.737762 
	C140.265045,95.321922 139.472397,97.881538 130.406250,104.083794 
	C126.591354,99.402084 122.756134,94.695435 118.944519,90.017746 
	C125.886070,82.450249 128.975906,81.993713 135.352570,87.737762 
z"/>
<path fill="#2A2927" opacity="1.000000" stroke="none" 
	d="
M70.582764,190.745483 
	C71.481880,195.643570 69.808586,199.016479 65.590698,200.793137 
	C61.661682,202.448105 55.423321,200.937592 53.632336,197.144669 
	C52.398716,194.532135 52.239929,190.682053 53.198002,187.943954 
	C54.480473,184.278763 58.606953,182.978149 62.015423,184.256424 
	C65.146759,185.430740 67.651573,188.275665 70.582764,190.745483 
z"/>
<path fill="#2E2D2C" opacity="1.000000" stroke="none" 
	d="
M69.039452,151.053436 
	C69.942001,149.428802 70.392059,147.566376 71.510063,146.982147 
	C73.262535,146.066330 76.064240,145.064743 77.315910,145.853653 
	C78.655373,146.697906 79.471420,149.711594 79.141014,151.528320 
	C78.725098,153.815155 76.915108,155.848450 75.299614,158.712799 
	C73.948067,154.963654 67.296921,157.358337 69.039452,151.053436 
z"/>
<path fill="#312F2E" opacity="1.000000" stroke="none" 
	d="
M465.150940,165.570007 
	C459.196075,171.877075 456.194519,167.625580 453.608093,159.398392 
	C456.062378,158.187729 458.618195,156.926987 461.921326,155.297607 
	C463.121338,158.837753 464.197266,162.011856 465.150940,165.570007 
z"/>
<path fill="#353433" opacity="1.000000" stroke="none" 
	d="
M434.127197,134.278412 
	C432.360077,132.372177 430.960968,130.607788 429.154114,128.329178 
	C432.761536,127.383972 435.776062,126.594116 439.884125,125.517738 
	C437.675964,129.165573 436.085571,131.792908 434.127197,134.278412 
z"/>
<path fill="#020101" opacity="1.000000" stroke="none" 
	d="
M218.946350,184.439941 
	C213.319031,181.950272 208.422256,179.265503 205.474731,173.569962 
	C214.834015,166.100677 225.133484,160.888565 236.122742,156.965027 
	C268.741760,145.318909 299.239349,150.063889 328.370300,169.328079 
	C329.258789,169.810516 329.649048,169.936172 330.039276,170.061813 
	C330.039276,170.061813 330.044708,169.986191 330.007385,169.980774 
	C340.269623,178.052567 348.633698,187.871674 355.534515,198.919617 
	C357.896362,202.700806 359.902100,206.775696 361.495331,210.936630 
	C362.334381,213.127853 362.594299,216.003052 361.903290,218.185532 
	C361.237000,220.289917 359.010864,221.900436 357.470001,223.727921 
	C355.734528,222.174484 353.631409,220.869415 352.366943,218.997787 
	C351.103210,217.127151 350.845856,214.609711 349.846680,212.519516 
	C348.357056,209.403397 346.288330,206.359589 342.296082,207.462677 
	C337.825165,208.697983 337.552582,213.011597 338.947052,216.078964 
	C341.144287,220.912231 343.796631,226.113159 347.700104,229.488907 
	C359.607941,239.786850 360.659637,251.828369 349.461639,262.875702 
	C344.831665,267.443359 341.510681,272.406372 340.398376,279.061890 
	C339.930542,281.861420 337.725494,284.937531 335.419464,286.762238 
	C326.683472,293.674835 317.643463,300.212067 308.554657,306.660706 
	C307.146576,307.659790 304.666168,308.108612 303.113800,307.568909 
	C302.237305,307.264130 301.560913,304.238037 301.964325,302.756226 
	C304.096161,294.925201 305.934113,286.907135 309.139862,279.501923 
	C313.332703,269.816650 312.692688,260.727814 308.341522,251.594498 
	C300.936859,236.051773 290.956573,223.494492 273.099121,218.794357 
	C267.932739,217.434540 263.118988,213.628555 258.911621,210.042801 
	C254.702438,206.455536 255.176300,203.399292 259.021149,199.385651 
	C259.481903,198.904663 259.952209,198.431931 260.434601,197.972717 
	C266.529541,192.170700 266.365723,189.417694 259.521790,184.178574 
	C256.396393,181.786026 253.570511,179.270279 254.019653,174.399918 
	C253.973724,174.003906 253.983261,174.067261 254.210846,174.018280 
	C254.710327,173.773026 254.849335,173.507278 255.162140,172.988708 
	C259.061951,170.589310 262.655151,168.373260 266.796844,165.818924 
	C254.767654,161.887238 243.337753,166.820160 238.572693,177.226242 
	C234.338165,185.304993 227.608719,186.878799 218.946350,184.439941 
z"/>
<path fill="#020101" opacity="1.000000" stroke="none" 
	d="
M209.836212,274.163116 
	C218.251801,282.650970 222.618362,293.101776 226.951065,303.554413 
	C229.048782,308.615173 230.911148,313.772919 232.937103,318.864075 
	C235.680847,325.758942 240.371155,329.127228 248.216797,329.264496 
	C252.496048,329.339325 257.355865,331.287354 260.831207,333.889771 
	C265.816528,337.622955 264.720764,342.289398 259.804718,346.117218 
	C251.727097,352.406769 244.099014,353.427917 234.439117,348.495667 
	C218.533112,340.374298 202.172745,333.000366 190.169022,319.373474 
	C175.302094,302.496216 167.990860,282.559937 168.978729,259.830627 
	C169.109619,256.819183 170.032822,254.773209 173.150894,253.939194 
	C176.032318,253.168472 178.789490,251.850418 181.700821,251.289474 
	C191.258194,249.448013 196.122955,252.459045 200.468857,261.095642 
	C202.799774,265.727905 206.487854,269.677277 209.836212,274.163116 
z"/>
<path fill="#070202" opacity="1.000000" stroke="none" 
	d="
M360.402527,275.322815 
	C365.696594,274.378601 369.319489,275.901611 371.276398,280.682617 
	C373.089233,285.111542 372.389191,293.792542 369.645294,295.860870 
	C368.852478,296.458466 366.681305,296.105347 365.731018,295.397461 
	C364.498596,294.479431 363.855347,292.770447 362.767883,291.111084 
	C360.197052,292.813965 358.046906,294.719543 355.536407,295.729309 
	C353.905853,296.385162 351.522430,296.205505 349.940613,295.440338 
	C349.300507,295.130676 349.671844,292.224701 349.975922,290.572571 
	C350.627686,287.031250 351.761414,283.570221 352.282928,280.015442 
	C353.001892,275.115234 357.222992,276.584564 360.402527,275.322815 
z"/>
<path fill="#60C955" opacity="1.000000" stroke="none" 
	d="
M239.008362,177.214203 
	C243.337753,166.820160 254.767654,161.887238 266.796844,165.818924 
	C262.655151,168.373260 259.061951,170.589310 254.912552,173.034973 
	C254.231964,173.532150 254.107605,173.799698 253.983246,174.067261 
	C253.983261,174.067261 253.973724,174.003906 254.005554,174.003021 
	C249.172943,175.068802 244.308487,176.135483 239.008362,177.214203 
z"/>
<path fill="#0D0404" opacity="1.000000" stroke="none" 
	d="
M324.500702,313.673340 
	C328.067322,305.938171 335.431671,305.432831 342.035065,302.344269 
	C341.368530,308.660828 331.659546,319.186127 326.835388,319.341064 
	C322.506073,319.480072 324.298096,316.236023 324.500702,313.673340 
z"/>
<path fill="#FD4B50" opacity="1.000000" stroke="none" 
	d="
M329.919586,169.751770 
	C329.649048,169.936172 329.258789,169.810516 328.687195,169.426300 
	C328.937195,169.259064 329.368530,169.350403 329.919586,169.751770 
z"/>
<path fill="#FD4B50" opacity="1.000000" stroke="none" 
	d="
M254.210846,174.018280 
	C254.107605,173.799698 254.231964,173.532150 254.605896,173.218338 
	C254.849335,173.507278 254.710327,173.773026 254.210846,174.018280 
z"/>
</svg>